# xmcd
# 
# Track frame offsets:
#     150
#     16537
#     32899
#     42006
#     51058
#     66116
#     81174
#     94334
#     107494
#     116599
#     125704
#     129165
#     132686
#     138216
#     141772
#     145043
#     147834
#     151950
#     156071
#     160187
#     165249
#     169735
#     175023
#     178495
#     183601
#     188737
#     193861
#     199254
#     214608
#     229597
#     235184
#     252909
#     270555
#     275050
#     279211
#     284558
#     287486
#     304009
#     320500
# 
# Disc length: 4311
# 
# Revision: 1
# Processed by: cddbd v1.5.2PL0 Copyright (c) Steve Scherf et al.
# Submitted via: fre:ac v1.0.17
# 
DISCID=3610d527
DTITLE=Dieter Kropp - Blues Harp Shule 2
DYEAR=2015
DGENRE=Blues
TTITLE0=Blues Harp Boogie Blues, komplette Version
TTITLE1=Blues Harp Boogie Blues, Playalong
TTITLE2=Easy Goin', komplette Version
TTITLE3=Easy Goin', Playalong
TTITLE4=Hot Tongue And Cool Groove, komplette Version
TTITLE5=Hot Tongue And Cool Groove, Playalong
TTITLE6=Cakewalk, komplette Version
TTITLE7=Cakewalk, Playalong
TTITLE8=Slapping' And Pullin', komplette Version
TTITLE9=Slapping' And Pullin', playalong
TTITLE10=Einspiel-Übung 1, Tongue Block (vom Akkord zum Einzelton)
TTITLE11=Einspiel-Übung 2, Tongue Block mit rhythmischer Begleitung und Flatterzunge
TTITLE12=Einspiel-Übung 3, Tongue Block: Einzelton vs Tongue Block mit Slap (Blues Harp Boogie Blues)
TTITLE13=Einspiel-Übung 4, Tongue Block: der Tongue Block Slap
TTITLE14=Einspiel-Übung 5, Tongue Block: der Tongue Block Pull
TTITLE15=Einspiel-Übung 6, Tongue Block: der Tongue Block Slap und der Tongue Block Pull
TTITLE16=Einspiel-Übung 7, Tongue Block Groove mit Einzeltönen (single notes)
TTITLE17=Einspiel-Übung 8, Tongue Block Groove mit Tongue Block Slap und Tongue Block Pull, No. 1
TTITLE18=Einspiel-Übung 9, Tongue Block Groove mit Tongue Block Slap und Tongue Block Pull, No. 2
TTITLE19=Einspiel-Übung 10, Oktaven-Training: vom Einzelton zur Oktave
TTITLE20=Einspiel-Übung 11, Oktaven-Training: vom Akkord zur Oktave
TTITLE21=Einspiel-Übung 12, Oktaven-Training: mögliche Oktaven auf der Richter-Mundharmonika/Blues Harp
TTITLE22=Einspiel-Übung 13, Splitting: die Septime, das Intervall vom Grundton G zur Septime F (der kleinen Sieben)
TTITLE23=Ta.TaKa.TuTaa!, komplette Version
TTITLE24=Ta.TaKa.TuKa.Taa!, komplette Version
TTITLE25=Ta.TaKa.TuKa.TaTaa!, komplette Version
TTITLE26=Ta.TaKa.TuKa.TaKa.Ta.TaKa.TuKaa! Ta.TaKa.TuKa.TaTaa!, komplette Version
TTITLE27=Chugging 'n' Lickin', komplette Version
TTITLE28=TaKa.TuKa.Ta, Chugging 'n' Lickin', Playalong
TTITLE29=Einspiel-Übung 14, gesprochene Chugging-Silben
TTITLE30=Right Now!, komplette Version
TTITLE31=Right Now!, Playalong
TTITLE32=Einspiel-Übung 15, Blaston-Bending: Übung Kanal 8 blasen
TTITLE33=Einspiel-Übung 16, Blaston-Bending: Übung Kanal 9 blasen
TTITLE34=Einspiel-Übung 17, Blaston-Bending: Übung Kanal 10 blasen
TTITLE35=Einspiel-Übung 18, Blues-Skala in A mit Blaston-Bendings, hohe Oktave
TTITLE36=Blues Is In The House, komplette Version
TTITLE37=Blues Is In The House, Playalong
TTITLE38=Einspiel-Übung 19, Blues-Skale in A (ohne kleine Terz), mit Ziehton-Bendings, tiefe Oktave
EXTD=
EXTT0=
EXTT1=
EXTT2=
EXTT3=
EXTT4=
EXTT5=
EXTT6=
EXTT7=
EXTT8=
EXTT9=
EXTT10=
EXTT11=
EXTT12=
EXTT13=
EXTT14=
EXTT15=
EXTT16=
EXTT17=
EXTT18=
EXTT19=
EXTT20=
EXTT21=
EXTT22=
EXTT23=
EXTT24=
EXTT25=
EXTT26=
EXTT27=
EXTT28=
EXTT29=
EXTT30=
EXTT31=
EXTT32=
EXTT33=
EXTT34=
EXTT35=
EXTT36=
EXTT37=
EXTT38=
PLAYORDER=
